<svg width="24" height="24" viewBox="0 0 24 24" fill="none" xmlns="http://www.w3.org/2000/svg">
    <path d="M11.9998 0.675049C5.7373 0.675049 0.674805 5.73755 0.674805 12C0.674805 18.2626 5.7373 23.3625 11.9998 23.3625C18.2623 23.3625 23.3623 18.2626 23.3623 12C23.3623 5.73755 18.2623 0.675049 11.9998 0.675049ZM11.9998 21.675C6.67481 21.675 2.3623 17.325 2.3623 12C2.3623 6.67505 6.67481 2.36255 11.9998 2.36255C17.3248 2.36255 21.6748 6.71255 21.6748 12.0375C21.6748 17.325 17.3248 21.675 11.9998 21.675Z" fill="white"/>
    <path d="M12.6747 4.53754C11.5872 4.35004 10.4622 4.65004 9.63721 5.36254C8.81221 6.07504 8.32471 7.08754 8.32471 8.21254C8.32471 8.62504 8.39971 9.03754 8.54971 9.45004C8.69971 9.90004 9.18721 10.125 9.63721 9.97504C10.0872 9.82504 10.3122 9.33754 10.1622 8.88754C10.0872 8.66254 10.0497 8.43754 10.0497 8.21254C10.0497 7.61254 10.3122 7.05004 10.7622 6.67504C11.2122 6.30004 11.8122 6.11254 12.4497 6.22504C13.2372 6.37504 13.9122 7.05004 14.0622 7.83754C14.2122 8.77504 13.7247 9.71254 12.8622 10.0875C11.8872 10.5 11.2497 11.475 11.2497 12.6V14.925C11.2497 15.375 11.6247 15.7875 12.1122 15.7875C12.5622 15.7875 12.9747 15.4125 12.9747 14.925V12.6C12.9747 12.1875 13.1997 11.8125 13.5372 11.6625C15.1497 10.9875 16.0872 9.30004 15.7872 7.57504C15.3747 6.03754 14.1747 4.80004 12.6747 4.53754Z" fill="white"/>
    <path d="M12.0375 17.175H11.925C11.475 17.175 11.0625 17.55 11.0625 18.0375C11.0625 18.525 11.4375 18.9 11.925 18.9H12.0375C12.4875 18.9 12.8625 18.525 12.8625 18.0375C12.8625 17.55 12.525 17.175 12.0375 17.175Z" fill="white"/>
</svg>
